<?xml version="1.0" encoding="utf-8"?>
<!DOCTYPE svg PUBLIC "-//W3C//DTD SVG 20010904//EN" "http://www.w3.org/TR/2001/REC-SVG-20010904/DTD/svg10.dtd">
<svg version="1.0" xmlns="http://www.w3.org/2000/svg" width="40px" height="40px" viewBox="0 0 40 40" preserveAspectRatio="xMidYMid meet">
 <g fill="#000000">
  <path d="M8 37.9 c0 -1.1 0.9 -3.4 2.1 -5.1 1.2 -1.6 1.9 -3.1 1.6 -3.4 -0.3 -0.3 -3 -0.5 -6.1 -0.5 l-5.6 0 0 -3.5 c0 -3.8 2.9 -7.4 5.9 -7.4 2.4 0 3.4 -2.5 2.1 -5 -1.1 -2.1 -1.3 -8.9 -0.4 -11.4 0.5 -1.3 2.7 -1.6 13.5 -1.6 11.7 0 12.9 0.2 13.9 1.9 1.4 2.8 1.2 8.4 -0.4 10.6 -1.8 2.4 -0.5 5.2 3 6.5 2.1 0.9 2.4 1.5 2.4 6.5 0 5.4 0 5.5 -3 5.5 -1.7 0 -3.9 -0.9 -5 -2 -1.1 -1.1 -2.7 -2 -3.5 -2 -1.3 0 -1.1 0.9 1 4.3 1.4 2.4 2.5 5.3 2.5 6.5 0 2 -0.5 2.2 -4.8 2.2 -4.1 0 -5.1 -0.4 -5.9 -2.2 l-1 -2.3 -1.2 2.3 c-1 1.8 -2 2.2 -6.1 2.2 -4.4 0 -5 -0.2 -5 -2.1z m15 -31 c0 -1.2 -0.7 -1.9 -2 -1.9 -2.2 0 -2.9 3.5 -0.7 4.3 1.8 0.6 2.7 -0.2 2.7 -2.4z"/>
 </g>
 <g fill="#ffffff">
  <path d="M0 33 c0 -6.8 0.1 -7 2.8 -7.6 1.5 -0.3 3.2 -0.7 3.8 -0.9 0.6 -0.2 1.7 0.2 2.3 0.8 0.9 0.9 1.5 0.8 2.2 -0.5 0.6 -1 2 -1.8 3.2 -1.9 2 -0.1 2 -0.2 -0.3 -0.8 -2.5 -0.7 -2.5 -0.7 1.5 -3.4 l4 -2.7 0.3 4.6 c0.3 4.1 -0.2 5.5 -4.5 12 l-4.8 7.4 -5.2 0 -5.3 0 0 -7z"/>
  <path d="M13.6 38.8 c2.9 -5.1 6.7 -9.8 7.4 -9.3 0.8 0.5 6 9.3 6 10.1 0 0.2 -3.2 0.4 -7.1 0.4 -5.3 0 -6.8 -0.3 -6.3 -1.2z"/>
  <path d="M25.8 33.1 c-3 -5.4 -3.8 -8 -3.8 -12 0 -2.8 0.3 -5.1 0.8 -5.1 0.4 0 2.2 0.9 4 2 2.9 1.8 3.7 3 3.3 5.3 0 0.4 0.6 0.7 1.4 0.7 0.8 0 2.4 0.9 3.5 2 1.1 1.1 2.7 2 3.5 2 1.2 0 1.5 1.3 1.5 6 l0 6 -5.2 0 -5.3 0 -3.7 -6.9z"/>
  <path d="M37.7 24.5 c-1 -1.4 -2.4 -2.5 -3.2 -2.5 -0.8 0 -2 -0.9 -2.7 -1.9 -0.8 -1.1 -3.1 -2.7 -5.2 -3.7 l-3.7 -1.8 3.2 -1.1 c1.8 -0.6 4.1 -2.3 5.2 -3.7 2.4 -3.2 1.1 -6.3 -3.6 -8.3 -3.1 -1.4 -2.9 -1.4 4.6 -1.5 l7.7 0 0 13.5 c0 7.4 -0.1 13.5 -0.2 13.5 -0.2 0 -1.1 -1.2 -2.1 -2.5z"/>
  <path d="M0 12 l0 -12 8.8 0 c8.6 0 8.7 0.1 5.5 1.6 -5.9 2.9 -5.5 8.5 0.8 11.3 l3.9 1.8 -4 2.2 c-2.1 1.2 -4.2 3.1 -4.5 4.2 -0.6 1.7 -0.9 1.8 -2.2 0.7 -1.2 -1 -1.7 -0.9 -2.4 0.5 -0.6 0.9 -2.1 1.7 -3.4 1.7 l-2.5 0 0 -12z"/>
  <path d="M17 12.3 c-4.8 -1.8 -6.3 -5.8 -3.2 -8.5 5.7 -5.1 18.9 -1.4 16.6 4.7 -1.3 3.3 -8.8 5.5 -13.4 3.8z"/>
 </g>
</svg>